<mxfile host="app.diagrams.net" agent="Mozilla/5.0 (Windows NT 10.0; Win64; x64) AppleWebKit/537.36 (KHTML, like Gecko) Chrome/134.0.0.0 Safari/537.36" version="26.2.14">
  <diagram name="Page-1" id="23k4kIXcUpD67ppIFEuZ">
    <mxGraphModel dx="1430" dy="826" grid="1" gridSize="10" guides="1" tooltips="1" connect="1" arrows="1" fold="1" page="1" pageScale="1" pageWidth="850" pageHeight="1100" math="0" shadow="0">
      <root>
        <mxCell id="0" />
        <mxCell id="1" parent="0" />
        <mxCell id="wmerD7P6c2fhzKaJmc1H-12" value="" style="rounded=0;whiteSpace=wrap;html=1;" parent="1" vertex="1">
          <mxGeometry x="145.5" y="789" width="343.5" height="115" as="geometry" />
        </mxCell>
        <mxCell id="wmerD7P6c2fhzKaJmc1H-5" value="" style="rounded=0;whiteSpace=wrap;html=1;" parent="1" vertex="1">
          <mxGeometry x="211.5" y="659" width="120" height="110" as="geometry" />
        </mxCell>
        <mxCell id="-5aLn5IDz-yiHX2ItAhz-75" value="Foglalas" style="rounded=0;whiteSpace=wrap;html=1;" parent="1" vertex="1">
          <mxGeometry x="250" y="929.9999999999998" width="120" height="59" as="geometry" />
        </mxCell>
        <mxCell id="-5aLn5IDz-yiHX2ItAhz-74" value="Foglalas" style="rounded=0;whiteSpace=wrap;html=1;" parent="1" vertex="1">
          <mxGeometry x="240" y="919.9999999999998" width="120" height="59" as="geometry" />
        </mxCell>
        <mxCell id="-5aLn5IDz-yiHX2ItAhz-72" value="Klubtag" style="rounded=0;whiteSpace=wrap;html=1;" parent="1" vertex="1">
          <mxGeometry x="750" y="1555.4299999999998" width="120" height="59" as="geometry" />
        </mxCell>
        <mxCell id="-5aLn5IDz-yiHX2ItAhz-71" value="Klubtag" style="rounded=0;whiteSpace=wrap;html=1;" parent="1" vertex="1">
          <mxGeometry x="740" y="1244.9999999999998" width="120" height="59" as="geometry" />
        </mxCell>
        <mxCell id="-5aLn5IDz-yiHX2ItAhz-46" value="" style="endArrow=none;dashed=1;html=1;rounded=0;entryX=0.125;entryY=-0.05;entryDx=0;entryDy=0;entryPerimeter=0;" parent="1" edge="1">
          <mxGeometry width="50" height="50" relative="1" as="geometry">
            <mxPoint x="425.5" y="1569.9999999999998" as="sourcePoint" />
            <mxPoint x="424.5" y="1238.9999999999998" as="targetPoint" />
          </mxGeometry>
        </mxCell>
        <mxCell id="-5aLn5IDz-yiHX2ItAhz-45" value="" style="endArrow=none;dashed=1;html=1;rounded=0;entryX=0.125;entryY=-0.05;entryDx=0;entryDy=0;entryPerimeter=0;" parent="1" edge="1">
          <mxGeometry width="50" height="50" relative="1" as="geometry">
            <mxPoint x="390.5" y="1570.9999999999998" as="sourcePoint" />
            <mxPoint x="389.5" y="1239.9999999999998" as="targetPoint" />
          </mxGeometry>
        </mxCell>
        <mxCell id="-5aLn5IDz-yiHX2ItAhz-44" value="" style="endArrow=none;dashed=1;html=1;rounded=0;entryX=0.125;entryY=-0.05;entryDx=0;entryDy=0;entryPerimeter=0;" parent="1" target="-5aLn5IDz-yiHX2ItAhz-43" edge="1">
          <mxGeometry width="50" height="50" relative="1" as="geometry">
            <mxPoint x="366" y="1569.9999999999998" as="sourcePoint" />
            <mxPoint x="380" y="1349.9999999999998" as="targetPoint" />
          </mxGeometry>
        </mxCell>
        <mxCell id="-5aLn5IDz-yiHX2ItAhz-24" value="Palya" style="rounded=0;whiteSpace=wrap;html=1;" parent="1" vertex="1">
          <mxGeometry x="350" y="1179.9999999999998" width="120" height="59" as="geometry" />
        </mxCell>
        <mxCell id="-5aLn5IDz-yiHX2ItAhz-23" value="Palya" style="rounded=0;whiteSpace=wrap;html=1;" parent="1" vertex="1">
          <mxGeometry x="340" y="1169.9999999999998" width="120" height="59" as="geometry" />
        </mxCell>
        <mxCell id="-5aLn5IDz-yiHX2ItAhz-4" value="" style="rounded=0;whiteSpace=wrap;html=1;" parent="1" vertex="1">
          <mxGeometry x="530" y="929.9999999999998" width="120" height="59" as="geometry" />
        </mxCell>
        <mxCell id="-5aLn5IDz-yiHX2ItAhz-3" value="" style="rounded=0;whiteSpace=wrap;html=1;" parent="1" vertex="1">
          <mxGeometry x="520" y="919.9999999999998" width="120" height="59" as="geometry" />
        </mxCell>
        <mxCell id="tQPfZLa-1JDw5LYKSxju-6" style="edgeStyle=none;curved=1;rounded=0;orthogonalLoop=1;jettySize=auto;html=1;exitX=0.5;exitY=0.5;exitDx=0;exitDy=0;exitPerimeter=0;entryX=0;entryY=0.5;entryDx=0;entryDy=0;fontSize=12;startSize=8;endSize=8;" parent="1" source="RCcNGVWDQ_7rDxmdVCuK-1" target="tQPfZLa-1JDw5LYKSxju-1" edge="1">
          <mxGeometry relative="1" as="geometry" />
        </mxCell>
        <mxCell id="tQPfZLa-1JDw5LYKSxju-7" style="edgeStyle=none;curved=1;rounded=0;orthogonalLoop=1;jettySize=auto;html=1;exitX=0.5;exitY=0.5;exitDx=0;exitDy=0;exitPerimeter=0;entryX=0;entryY=0.5;entryDx=0;entryDy=0;fontSize=12;startSize=8;endSize=8;" parent="1" source="RCcNGVWDQ_7rDxmdVCuK-1" target="RCcNGVWDQ_7rDxmdVCuK-3" edge="1">
          <mxGeometry relative="1" as="geometry" />
        </mxCell>
        <mxCell id="tQPfZLa-1JDw5LYKSxju-8" style="edgeStyle=none;curved=1;rounded=0;orthogonalLoop=1;jettySize=auto;html=1;exitX=0.5;exitY=0.5;exitDx=0;exitDy=0;exitPerimeter=0;entryX=0;entryY=0.5;entryDx=0;entryDy=0;fontSize=12;startSize=8;endSize=8;" parent="1" source="RCcNGVWDQ_7rDxmdVCuK-1" target="RCcNGVWDQ_7rDxmdVCuK-10" edge="1">
          <mxGeometry relative="1" as="geometry" />
        </mxCell>
        <mxCell id="tQPfZLa-1JDw5LYKSxju-20" style="edgeStyle=none;curved=1;rounded=0;orthogonalLoop=1;jettySize=auto;html=1;exitX=0.5;exitY=0.5;exitDx=0;exitDy=0;exitPerimeter=0;entryX=0;entryY=0.5;entryDx=0;entryDy=0;fontSize=12;startSize=8;endSize=8;" parent="1" source="RCcNGVWDQ_7rDxmdVCuK-1" target="tQPfZLa-1JDw5LYKSxju-16" edge="1">
          <mxGeometry relative="1" as="geometry" />
        </mxCell>
        <mxCell id="tQPfZLa-1JDw5LYKSxju-32" style="edgeStyle=none;curved=1;rounded=0;orthogonalLoop=1;jettySize=auto;html=1;exitX=0.5;exitY=0.5;exitDx=0;exitDy=0;exitPerimeter=0;entryX=0;entryY=0.5;entryDx=0;entryDy=0;fontSize=12;startSize=8;endSize=8;" parent="1" source="RCcNGVWDQ_7rDxmdVCuK-1" target="tQPfZLa-1JDw5LYKSxju-28" edge="1">
          <mxGeometry relative="1" as="geometry" />
        </mxCell>
        <mxCell id="tQPfZLa-1JDw5LYKSxju-34" style="edgeStyle=none;curved=1;rounded=0;orthogonalLoop=1;jettySize=auto;html=1;exitX=0.5;exitY=0.5;exitDx=0;exitDy=0;exitPerimeter=0;entryX=0;entryY=0.5;entryDx=0;entryDy=0;fontSize=12;startSize=8;endSize=8;" parent="1" source="RCcNGVWDQ_7rDxmdVCuK-1" target="tQPfZLa-1JDw5LYKSxju-29" edge="1">
          <mxGeometry relative="1" as="geometry" />
        </mxCell>
        <mxCell id="tQPfZLa-1JDw5LYKSxju-35" style="edgeStyle=none;curved=1;rounded=0;orthogonalLoop=1;jettySize=auto;html=1;exitX=0.5;exitY=0.5;exitDx=0;exitDy=0;exitPerimeter=0;entryX=0;entryY=0.5;entryDx=0;entryDy=0;fontSize=12;startSize=8;endSize=8;" parent="1" source="RCcNGVWDQ_7rDxmdVCuK-1" target="tQPfZLa-1JDw5LYKSxju-30" edge="1">
          <mxGeometry relative="1" as="geometry" />
        </mxCell>
        <mxCell id="RCcNGVWDQ_7rDxmdVCuK-1" value="klubtag" style="shape=umlActor;verticalLabelPosition=bottom;verticalAlign=top;html=1;outlineConnect=0;" parent="1" vertex="1">
          <mxGeometry x="9" y="85" width="30" height="60" as="geometry" />
        </mxCell>
        <mxCell id="RCcNGVWDQ_7rDxmdVCuK-3" value="Foglalas" style="ellipse;whiteSpace=wrap;html=1;" parent="1" vertex="1">
          <mxGeometry x="199" y="20" width="120" height="50" as="geometry" />
        </mxCell>
        <mxCell id="RCcNGVWDQ_7rDxmdVCuK-27" style="edgeStyle=orthogonalEdgeStyle;rounded=0;orthogonalLoop=1;jettySize=auto;html=1;exitX=0;exitY=0;exitDx=0;exitDy=0;entryX=0;entryY=1;entryDx=0;entryDy=0;" parent="1" source="RCcNGVWDQ_7rDxmdVCuK-6" target="RCcNGVWDQ_7rDxmdVCuK-7" edge="1">
          <mxGeometry relative="1" as="geometry" />
        </mxCell>
        <mxCell id="RCcNGVWDQ_7rDxmdVCuK-6" value="TorolPalya" style="ellipse;whiteSpace=wrap;html=1;" parent="1" vertex="1">
          <mxGeometry x="649" y="60" width="120" height="50" as="geometry" />
        </mxCell>
        <mxCell id="RCcNGVWDQ_7rDxmdVCuK-7" value="UjP&lt;span style=&quot;background-color: transparent; color: light-dark(rgb(0, 0, 0), rgb(255, 255, 255));&quot;&gt;alya&lt;/span&gt;" style="ellipse;whiteSpace=wrap;html=1;" parent="1" vertex="1">
          <mxGeometry x="649" width="120" height="50" as="geometry" />
        </mxCell>
        <mxCell id="tQPfZLa-1JDw5LYKSxju-4" style="edgeStyle=none;curved=1;rounded=0;orthogonalLoop=1;jettySize=auto;html=1;exitX=0.5;exitY=0.5;exitDx=0;exitDy=0;exitPerimeter=0;entryX=1;entryY=0.5;entryDx=0;entryDy=0;fontSize=12;startSize=8;endSize=8;" parent="1" source="RCcNGVWDQ_7rDxmdVCuK-8" target="RCcNGVWDQ_7rDxmdVCuK-6" edge="1">
          <mxGeometry relative="1" as="geometry" />
        </mxCell>
        <mxCell id="tQPfZLa-1JDw5LYKSxju-5" style="edgeStyle=none;curved=1;rounded=0;orthogonalLoop=1;jettySize=auto;html=1;exitX=0.5;exitY=0.5;exitDx=0;exitDy=0;exitPerimeter=0;entryX=1;entryY=0.5;entryDx=0;entryDy=0;fontSize=12;startSize=8;endSize=8;" parent="1" source="RCcNGVWDQ_7rDxmdVCuK-8" target="RCcNGVWDQ_7rDxmdVCuK-7" edge="1">
          <mxGeometry relative="1" as="geometry" />
        </mxCell>
        <mxCell id="tQPfZLa-1JDw5LYKSxju-27" style="edgeStyle=none;curved=1;rounded=0;orthogonalLoop=1;jettySize=auto;html=1;exitX=0.5;exitY=0.5;exitDx=0;exitDy=0;exitPerimeter=0;entryX=1;entryY=0.5;entryDx=0;entryDy=0;fontSize=12;startSize=8;endSize=8;" parent="1" source="RCcNGVWDQ_7rDxmdVCuK-8" target="tQPfZLa-1JDw5LYKSxju-16" edge="1">
          <mxGeometry relative="1" as="geometry" />
        </mxCell>
        <mxCell id="tQPfZLa-1JDw5LYKSxju-31" style="edgeStyle=none;curved=1;rounded=0;orthogonalLoop=1;jettySize=auto;html=1;exitX=0.5;exitY=0.5;exitDx=0;exitDy=0;exitPerimeter=0;entryX=1;entryY=0.5;entryDx=0;entryDy=0;fontSize=12;startSize=8;endSize=8;" parent="1" source="RCcNGVWDQ_7rDxmdVCuK-8" target="tQPfZLa-1JDw5LYKSxju-1" edge="1">
          <mxGeometry relative="1" as="geometry" />
        </mxCell>
        <mxCell id="tQPfZLa-1JDw5LYKSxju-33" style="edgeStyle=none;curved=1;rounded=0;orthogonalLoop=1;jettySize=auto;html=1;exitX=0.5;exitY=0.5;exitDx=0;exitDy=0;exitPerimeter=0;entryX=1;entryY=0.5;entryDx=0;entryDy=0;fontSize=12;startSize=8;endSize=8;" parent="1" source="RCcNGVWDQ_7rDxmdVCuK-8" target="tQPfZLa-1JDw5LYKSxju-28" edge="1">
          <mxGeometry relative="1" as="geometry" />
        </mxCell>
        <mxCell id="tQPfZLa-1JDw5LYKSxju-36" style="edgeStyle=none;curved=1;rounded=0;orthogonalLoop=1;jettySize=auto;html=1;exitX=0.5;exitY=0.5;exitDx=0;exitDy=0;exitPerimeter=0;entryX=1;entryY=0.5;entryDx=0;entryDy=0;fontSize=12;startSize=8;endSize=8;" parent="1" source="RCcNGVWDQ_7rDxmdVCuK-8" target="tQPfZLa-1JDw5LYKSxju-29" edge="1">
          <mxGeometry relative="1" as="geometry" />
        </mxCell>
        <mxCell id="tQPfZLa-1JDw5LYKSxju-37" style="edgeStyle=none;curved=1;rounded=0;orthogonalLoop=1;jettySize=auto;html=1;exitX=0.5;exitY=0.5;exitDx=0;exitDy=0;exitPerimeter=0;entryX=1;entryY=0.5;entryDx=0;entryDy=0;fontSize=12;startSize=8;endSize=8;" parent="1" source="RCcNGVWDQ_7rDxmdVCuK-8" target="tQPfZLa-1JDw5LYKSxju-30" edge="1">
          <mxGeometry relative="1" as="geometry" />
        </mxCell>
        <mxCell id="RCcNGVWDQ_7rDxmdVCuK-8" value="klub" style="shape=umlActor;verticalLabelPosition=bottom;verticalAlign=top;html=1;outlineConnect=0;" parent="1" vertex="1">
          <mxGeometry x="789" y="120" width="30" height="60" as="geometry" />
        </mxCell>
        <mxCell id="RCcNGVWDQ_7rDxmdVCuK-10" value="Visszamond" style="ellipse;whiteSpace=wrap;html=1;" parent="1" vertex="1">
          <mxGeometry x="199" y="80" width="120" height="50" as="geometry" />
        </mxCell>
        <mxCell id="RCcNGVWDQ_7rDxmdVCuK-13" value="&amp;lt;precedes&amp;gt;" style="text;html=1;align=center;verticalAlign=middle;resizable=0;points=[];autosize=1;strokeColor=none;fillColor=none;" parent="1" vertex="1">
          <mxGeometry x="589" y="40" width="90" height="30" as="geometry" />
        </mxCell>
        <mxCell id="RCcNGVWDQ_7rDxmdVCuK-28" value="&amp;lt;precedes&amp;gt;" style="text;html=1;align=center;verticalAlign=middle;resizable=0;points=[];autosize=1;strokeColor=none;fillColor=none;" parent="1" vertex="1">
          <mxGeometry x="294" y="55" width="90" height="30" as="geometry" />
        </mxCell>
        <mxCell id="RCcNGVWDQ_7rDxmdVCuK-30" value="Klubtag" style="swimlane;whiteSpace=wrap;html=1;" parent="1" vertex="1">
          <mxGeometry x="6.5" y="1760" width="310" height="150" as="geometry" />
        </mxCell>
        <mxCell id="RCcNGVWDQ_7rDxmdVCuK-32" value="+ nev: string&lt;div&gt;+ kedvezmeny: string&lt;/div&gt;&lt;div&gt;+ foglalasok: &amp;lt;Foglalas&amp;gt;&lt;/div&gt;&lt;div&gt;&lt;br&gt;&lt;/div&gt;&lt;div&gt;+ Klubtag(...)&lt;/div&gt;&lt;div&gt;+ Foglalas(palya: Palya, datum: Int, ora: Int): Foglalas&lt;/div&gt;&lt;div&gt;+ Visszamond(foglalas: Foglalas):void&lt;/div&gt;&lt;div&gt;+ Accept(Visitor:IVisitor):void&lt;/div&gt;" style="text;html=1;align=left;verticalAlign=middle;resizable=0;points=[];autosize=1;strokeColor=none;fillColor=none;" parent="RCcNGVWDQ_7rDxmdVCuK-30" vertex="1">
          <mxGeometry y="20" width="310" height="130" as="geometry" />
        </mxCell>
        <mxCell id="RCcNGVWDQ_7rDxmdVCuK-33" value="" style="endArrow=none;html=1;rounded=0;entryX=1.005;entryY=0.43;entryDx=0;entryDy=0;entryPerimeter=0;" parent="RCcNGVWDQ_7rDxmdVCuK-30" edge="1">
          <mxGeometry width="50" height="50" relative="1" as="geometry">
            <mxPoint y="71" as="sourcePoint" />
            <mxPoint x="309.99999999999994" y="70.90000000000009" as="targetPoint" />
          </mxGeometry>
        </mxCell>
        <mxCell id="4rPIcV-lHyRuGQjlF1An-21" style="edgeStyle=orthogonalEdgeStyle;rounded=0;orthogonalLoop=1;jettySize=auto;html=1;exitX=0.5;exitY=0;exitDx=0;exitDy=0;" edge="1" parent="1" source="RCcNGVWDQ_7rDxmdVCuK-35">
          <mxGeometry relative="1" as="geometry">
            <mxPoint x="380" y="1700" as="targetPoint" />
          </mxGeometry>
        </mxCell>
        <mxCell id="RCcNGVWDQ_7rDxmdVCuK-35" value="Palya" style="swimlane;whiteSpace=wrap;html=1;" parent="1" vertex="1">
          <mxGeometry x="334" y="1760" width="220" height="170" as="geometry" />
        </mxCell>
        <mxCell id="RCcNGVWDQ_7rDxmdVCuK-34" value="+ sorszam: int&lt;div&gt;+ boritas: string&lt;/div&gt;&lt;div&gt;+ fedett: bool&lt;/div&gt;&lt;div&gt;+ Foglalasok: &amp;lt;Foglalas&amp;gt;&lt;/div&gt;&lt;div&gt;- Oradijak: &amp;lt;string, int&amp;gt;&lt;/div&gt;&lt;div&gt;&lt;br&gt;&lt;/div&gt;&lt;div&gt;+ Palya(...)&lt;/div&gt;&lt;div&gt;+ Elerheto(datum: int, ora: int): bool&lt;/div&gt;&lt;div&gt;+ SzamolDij(klubtag: Klubtag): int&lt;/div&gt;&lt;div&gt;+ Accept(Visitor:IVisitor):void&lt;/div&gt;" style="text;html=1;align=left;verticalAlign=middle;resizable=0;points=[];autosize=1;strokeColor=none;fillColor=none;" parent="RCcNGVWDQ_7rDxmdVCuK-35" vertex="1">
          <mxGeometry y="18" width="210" height="160" as="geometry" />
        </mxCell>
        <mxCell id="RCcNGVWDQ_7rDxmdVCuK-37" value="Foglalas" style="swimlane;whiteSpace=wrap;html=1;" parent="1" vertex="1">
          <mxGeometry x="610" y="1759.9999999999998" width="180" height="140" as="geometry" />
        </mxCell>
        <mxCell id="4rPIcV-lHyRuGQjlF1An-25" style="edgeStyle=orthogonalEdgeStyle;rounded=0;orthogonalLoop=1;jettySize=auto;html=1;endArrow=diamondThin;endFill=0;endSize=12;" edge="1" parent="RCcNGVWDQ_7rDxmdVCuK-37" source="RCcNGVWDQ_7rDxmdVCuK-38">
          <mxGeometry relative="1" as="geometry">
            <mxPoint x="-60" y="75.00000000000023" as="targetPoint" />
            <Array as="points">
              <mxPoint x="-24" y="75" />
              <mxPoint x="-60" y="76" />
            </Array>
          </mxGeometry>
        </mxCell>
        <mxCell id="RCcNGVWDQ_7rDxmdVCuK-38" value="+ klubtag: Klubtag&lt;div&gt;+ palya: Palya&lt;/div&gt;&lt;div&gt;+ datum: Int&lt;/div&gt;&lt;div&gt;+ ora: Int&lt;/div&gt;&lt;div&gt;+ dij: Int&lt;/div&gt;&lt;div&gt;&lt;br&gt;&lt;/div&gt;&lt;div&gt;+ Foglalas(...)&lt;/div&gt;&lt;div&gt;+ Accept(Visitor:IVisitor):void&lt;/div&gt;" style="text;html=1;align=left;verticalAlign=middle;resizable=0;points=[];autosize=1;strokeColor=none;fillColor=none;" parent="RCcNGVWDQ_7rDxmdVCuK-37" vertex="1">
          <mxGeometry y="15" width="180" height="130" as="geometry" />
        </mxCell>
        <mxCell id="RCcNGVWDQ_7rDxmdVCuK-40" value="" style="endArrow=none;html=1;rounded=0;" parent="RCcNGVWDQ_7rDxmdVCuK-37" edge="1">
          <mxGeometry width="50" height="50" relative="1" as="geometry">
            <mxPoint y="100" as="sourcePoint" />
            <mxPoint x="181" y="100.00000000000023" as="targetPoint" />
            <Array as="points">
              <mxPoint y="100" />
            </Array>
          </mxGeometry>
        </mxCell>
        <mxCell id="RCcNGVWDQ_7rDxmdVCuK-39" value="" style="endArrow=none;html=1;rounded=0;" parent="1" source="RCcNGVWDQ_7rDxmdVCuK-34" edge="1">
          <mxGeometry width="50" height="50" relative="1" as="geometry">
            <mxPoint x="414" y="1829.9999999999998" as="sourcePoint" />
            <mxPoint x="554" y="1869.9999999999998" as="targetPoint" />
            <Array as="points">
              <mxPoint x="334" y="1869.9999999999998" />
            </Array>
          </mxGeometry>
        </mxCell>
        <mxCell id="RCcNGVWDQ_7rDxmdVCuK-41" value="Teniszklub" style="swimlane;whiteSpace=wrap;html=1;" parent="1" vertex="1">
          <mxGeometry x="185" y="1989.9999999999998" width="380" height="190" as="geometry" />
        </mxCell>
        <mxCell id="RCcNGVWDQ_7rDxmdVCuK-44" value="" style="endArrow=none;html=1;rounded=0;" parent="RCcNGVWDQ_7rDxmdVCuK-41" edge="1">
          <mxGeometry width="50" height="50" relative="1" as="geometry">
            <mxPoint x="160" y="60" as="sourcePoint" />
            <mxPoint x="380" y="60" as="targetPoint" />
            <Array as="points">
              <mxPoint y="60" />
              <mxPoint x="160" y="60" />
            </Array>
          </mxGeometry>
        </mxCell>
        <mxCell id="RCcNGVWDQ_7rDxmdVCuK-42" value="+ Palyak: &amp;lt;Palya&amp;gt;&lt;div&gt;+ Klubtagok &amp;lt;Klubtag&amp;gt;&lt;/div&gt;&lt;div&gt;&lt;br&gt;&lt;/div&gt;&lt;div&gt;+ Teniszklub()&lt;/div&gt;&lt;div&gt;+ UjPalya(sorszam: int, boritas: string, fedett: bool):void&lt;/div&gt;&lt;div&gt;+ TorolPalya(sorszam: int):void&lt;/div&gt;&lt;div&gt;+ UjKlubtag(nev: string, kedvezmeny: string):void&lt;/div&gt;&lt;div&gt;+ KeressSzabadPalyakat(datum: int, ora: int, boritas: string):&amp;lt;Palya&amp;gt;&lt;/div&gt;&lt;div&gt;+ FoglalasLekerdezes(Klubtag: klubtag, datum: int):&amp;lt;iint, int&amp;gt;&lt;/div&gt;&lt;div&gt;+ NapiKoltseg(Klubtag: klubtag, datum: int):int&lt;/div&gt;&lt;div&gt;+ BevetelekIdoszakra(kezdet: int, veg: int):int&lt;/div&gt;" style="text;html=1;align=left;verticalAlign=middle;resizable=0;points=[];autosize=1;strokeColor=none;fillColor=none;" parent="RCcNGVWDQ_7rDxmdVCuK-41" vertex="1">
          <mxGeometry y="20" width="380" height="170" as="geometry" />
        </mxCell>
        <mxCell id="tQPfZLa-1JDw5LYKSxju-1" value="UjKlubtag" style="ellipse;whiteSpace=wrap;html=1;" parent="1" vertex="1">
          <mxGeometry x="79" y="320" width="120" height="50" as="geometry" />
        </mxCell>
        <mxCell id="tQPfZLa-1JDw5LYKSxju-15" value="&amp;lt;precedes&amp;gt;" style="text;html=1;align=center;verticalAlign=middle;resizable=0;points=[];autosize=1;strokeColor=none;fillColor=none;" parent="1" vertex="1">
          <mxGeometry x="69" y="270" width="90" height="30" as="geometry" />
        </mxCell>
        <mxCell id="tQPfZLa-1JDw5LYKSxju-16" value="KeressSzabadPalyakat" style="ellipse;whiteSpace=wrap;html=1;" parent="1" vertex="1">
          <mxGeometry x="359" y="120" width="140" height="50" as="geometry" />
        </mxCell>
        <mxCell id="tQPfZLa-1JDw5LYKSxju-17" value="" style="endArrow=none;dashed=1;html=1;rounded=0;fontSize=12;startSize=8;endSize=8;curved=1;entryX=0;entryY=0.5;entryDx=0;entryDy=0;exitX=0;exitY=0;exitDx=0;exitDy=0;" parent="1" source="tQPfZLa-1JDw5LYKSxju-1" target="RCcNGVWDQ_7rDxmdVCuK-3" edge="1">
          <mxGeometry width="50" height="50" relative="1" as="geometry">
            <mxPoint x="89" y="190" as="sourcePoint" />
            <mxPoint x="139" y="140" as="targetPoint" />
          </mxGeometry>
        </mxCell>
        <mxCell id="tQPfZLa-1JDw5LYKSxju-19" value="" style="endArrow=none;dashed=1;html=1;rounded=0;fontSize=12;startSize=8;endSize=8;curved=1;exitX=0.923;exitY=0.214;exitDx=0;exitDy=0;exitPerimeter=0;" parent="1" source="RCcNGVWDQ_7rDxmdVCuK-10" edge="1">
          <mxGeometry width="50" height="50" relative="1" as="geometry">
            <mxPoint x="309" y="85" as="sourcePoint" />
            <mxPoint x="309" y="55" as="targetPoint" />
          </mxGeometry>
        </mxCell>
        <mxCell id="tQPfZLa-1JDw5LYKSxju-21" value="" style="endArrow=none;dashed=1;html=1;rounded=0;fontSize=12;startSize=8;endSize=8;curved=1;entryX=0.056;entryY=0.756;entryDx=0;entryDy=0;entryPerimeter=0;exitX=0.918;exitY=0.212;exitDx=0;exitDy=0;exitPerimeter=0;" parent="1" source="tQPfZLa-1JDw5LYKSxju-1" target="tQPfZLa-1JDw5LYKSxju-16" edge="1">
          <mxGeometry width="50" height="50" relative="1" as="geometry">
            <mxPoint x="179" y="190" as="sourcePoint" />
            <mxPoint x="219" y="160" as="targetPoint" />
          </mxGeometry>
        </mxCell>
        <mxCell id="tQPfZLa-1JDw5LYKSxju-25" value="&amp;lt;precedes&amp;gt;" style="text;html=1;align=center;verticalAlign=middle;resizable=0;points=[];autosize=1;strokeColor=none;fillColor=none;rotation=-45;" parent="1" vertex="1">
          <mxGeometry x="179" y="270" width="90" height="30" as="geometry" />
        </mxCell>
        <mxCell id="tQPfZLa-1JDw5LYKSxju-28" value="FoglalasLekerdezes" style="ellipse;whiteSpace=wrap;html=1;" parent="1" vertex="1">
          <mxGeometry x="369" y="180" width="120" height="50" as="geometry" />
        </mxCell>
        <mxCell id="tQPfZLa-1JDw5LYKSxju-29" value="NapiKoltseg" style="ellipse;whiteSpace=wrap;html=1;" parent="1" vertex="1">
          <mxGeometry x="369" y="240" width="120" height="50" as="geometry" />
        </mxCell>
        <mxCell id="tQPfZLa-1JDw5LYKSxju-30" value="BevetelekIdoszakra" style="ellipse;whiteSpace=wrap;html=1;" parent="1" vertex="1">
          <mxGeometry x="369" y="300" width="120" height="50" as="geometry" />
        </mxCell>
        <mxCell id="tQPfZLa-1JDw5LYKSxju-38" value="" style="endArrow=none;dashed=1;html=1;rounded=0;fontSize=12;startSize=8;endSize=8;curved=1;entryX=0;entryY=1;entryDx=0;entryDy=0;exitX=0.932;exitY=0.292;exitDx=0;exitDy=0;exitPerimeter=0;" parent="1" source="tQPfZLa-1JDw5LYKSxju-1" target="tQPfZLa-1JDw5LYKSxju-28" edge="1">
          <mxGeometry width="50" height="50" relative="1" as="geometry">
            <mxPoint x="199" y="341" as="sourcePoint" />
            <mxPoint x="377" y="168" as="targetPoint" />
          </mxGeometry>
        </mxCell>
        <mxCell id="tQPfZLa-1JDw5LYKSxju-39" value="" style="endArrow=none;dashed=1;html=1;rounded=0;fontSize=12;startSize=8;endSize=8;curved=1;entryX=0;entryY=0.5;entryDx=0;entryDy=0;exitX=1;exitY=0.5;exitDx=0;exitDy=0;" parent="1" source="tQPfZLa-1JDw5LYKSxju-1" target="tQPfZLa-1JDw5LYKSxju-29" edge="1">
          <mxGeometry width="50" height="50" relative="1" as="geometry">
            <mxPoint x="201" y="345" as="sourcePoint" />
            <mxPoint x="397" y="233" as="targetPoint" />
          </mxGeometry>
        </mxCell>
        <mxCell id="tQPfZLa-1JDw5LYKSxju-40" value="" style="endArrow=none;dashed=1;html=1;rounded=0;fontSize=12;startSize=8;endSize=8;curved=1;entryX=0;entryY=1;entryDx=0;entryDy=0;exitX=1;exitY=1;exitDx=0;exitDy=0;" parent="1" source="tQPfZLa-1JDw5LYKSxju-1" target="tQPfZLa-1JDw5LYKSxju-30" edge="1">
          <mxGeometry width="50" height="50" relative="1" as="geometry">
            <mxPoint x="209" y="355" as="sourcePoint" />
            <mxPoint x="379" y="275" as="targetPoint" />
          </mxGeometry>
        </mxCell>
        <mxCell id="tQPfZLa-1JDw5LYKSxju-41" value="&amp;lt;precedes&amp;gt;" style="text;html=1;align=center;verticalAlign=middle;resizable=0;points=[];autosize=1;strokeColor=none;fillColor=none;" parent="1" vertex="1">
          <mxGeometry x="244" y="350" width="90" height="30" as="geometry" />
        </mxCell>
        <mxCell id="-5aLn5IDz-yiHX2ItAhz-5" style="edgeStyle=orthogonalEdgeStyle;rounded=0;orthogonalLoop=1;jettySize=auto;html=1;exitX=0.5;exitY=0.5;exitDx=0;exitDy=0;exitPerimeter=0;entryX=0;entryY=0.5;entryDx=0;entryDy=0;" parent="1" source="tQPfZLa-1JDw5LYKSxju-43" target="-5aLn5IDz-yiHX2ItAhz-1" edge="1">
          <mxGeometry relative="1" as="geometry" />
        </mxCell>
        <mxCell id="tQPfZLa-1JDw5LYKSxju-43" value="klubtag" style="shape=umlActor;verticalLabelPosition=bottom;verticalAlign=top;html=1;outlineConnect=0;" parent="1" vertex="1">
          <mxGeometry x="10" y="909.9999999999998" width="30" height="59" as="geometry" />
        </mxCell>
        <mxCell id="-5aLn5IDz-yiHX2ItAhz-15" style="edgeStyle=orthogonalEdgeStyle;rounded=0;orthogonalLoop=1;jettySize=auto;html=1;exitX=0.5;exitY=0.5;exitDx=0;exitDy=0;exitPerimeter=0;entryX=0;entryY=0.75;entryDx=0;entryDy=0;" parent="1" source="tQPfZLa-1JDw5LYKSxju-44" target="-5aLn5IDz-yiHX2ItAhz-2" edge="1">
          <mxGeometry relative="1" as="geometry" />
        </mxCell>
        <mxCell id="tQPfZLa-1JDw5LYKSxju-44" value="klub" style="shape=umlActor;verticalLabelPosition=bottom;verticalAlign=top;html=1;outlineConnect=0;" parent="1" vertex="1">
          <mxGeometry x="400" y="1019.9999999999998" width="30" height="59" as="geometry" />
        </mxCell>
        <mxCell id="-5aLn5IDz-yiHX2ItAhz-1" value="Foglalas" style="rounded=0;whiteSpace=wrap;html=1;" parent="1" vertex="1">
          <mxGeometry x="230" y="909.9999999999998" width="120" height="59" as="geometry" />
        </mxCell>
        <mxCell id="-5aLn5IDz-yiHX2ItAhz-2" value="Palya" style="rounded=0;whiteSpace=wrap;html=1;" parent="1" vertex="1">
          <mxGeometry x="510" y="909.9999999999998" width="120" height="59" as="geometry" />
        </mxCell>
        <mxCell id="-5aLn5IDz-yiHX2ItAhz-11" style="edgeStyle=orthogonalEdgeStyle;rounded=0;orthogonalLoop=1;jettySize=auto;html=1;exitX=0.5;exitY=0.5;exitDx=0;exitDy=0;exitPerimeter=0;entryX=0.5;entryY=0.5;entryDx=0;entryDy=0;entryPerimeter=0;" parent="1" source="tQPfZLa-1JDw5LYKSxju-43" target="tQPfZLa-1JDw5LYKSxju-44" edge="1">
          <mxGeometry relative="1" as="geometry">
            <Array as="points">
              <mxPoint x="25" y="1049.9999999999998" />
              <mxPoint x="405" y="1049.9999999999998" />
            </Array>
          </mxGeometry>
        </mxCell>
        <mxCell id="-5aLn5IDz-yiHX2ItAhz-12" value="Foglalas()&lt;div&gt;Visszamond()&lt;/div&gt;" style="text;html=1;align=center;verticalAlign=middle;whiteSpace=wrap;rounded=0;" parent="1" vertex="1">
          <mxGeometry x="100" y="909.9999999999998" width="60" height="29" as="geometry" />
        </mxCell>
        <mxCell id="-5aLn5IDz-yiHX2ItAhz-13" value="UjKlubtag()&lt;div&gt;KeressSzabadPalyakat()&lt;/div&gt;&lt;div&gt;FoglalasLekerdezes()&lt;/div&gt;&lt;div&gt;NapiKoltseg()&lt;/div&gt;&lt;div&gt;bevetelekIdoszakra()&lt;/div&gt;" style="text;html=1;align=center;verticalAlign=middle;whiteSpace=wrap;rounded=0;" parent="1" vertex="1">
          <mxGeometry x="170" y="1069.9999999999998" width="60" height="29" as="geometry" />
        </mxCell>
        <mxCell id="-5aLn5IDz-yiHX2ItAhz-16" value="UjPalya()&lt;div&gt;TorolPalya()&lt;/div&gt;" style="text;html=1;align=center;verticalAlign=middle;whiteSpace=wrap;rounded=0;" parent="1" vertex="1">
          <mxGeometry x="470" y="999.9999999999998" width="60" height="29" as="geometry" />
        </mxCell>
        <mxCell id="-5aLn5IDz-yiHX2ItAhz-17" style="edgeStyle=orthogonalEdgeStyle;rounded=0;orthogonalLoop=1;jettySize=auto;html=1;exitX=1;exitY=1;exitDx=0;exitDy=0;entryX=0.5;entryY=0;entryDx=0;entryDy=0;entryPerimeter=0;" parent="1" source="-5aLn5IDz-yiHX2ItAhz-75" target="tQPfZLa-1JDw5LYKSxju-44" edge="1">
          <mxGeometry relative="1" as="geometry">
            <Array as="points">
              <mxPoint x="380" y="989.9999999999998" />
              <mxPoint x="380" y="999.9999999999998" />
              <mxPoint x="415" y="999.9999999999998" />
            </Array>
          </mxGeometry>
        </mxCell>
        <mxCell id="-5aLn5IDz-yiHX2ItAhz-18" value="Main()" style="shape=umlActor;verticalLabelPosition=bottom;verticalAlign=top;html=1;outlineConnect=0;" parent="1" vertex="1">
          <mxGeometry x="50" y="1139.9999999999998" width="30" height="59" as="geometry" />
        </mxCell>
        <mxCell id="-5aLn5IDz-yiHX2ItAhz-19" value="TeniszKlub" style="rounded=0;whiteSpace=wrap;html=1;" parent="1" vertex="1">
          <mxGeometry x="150" y="1159.9999999999998" width="120" height="59" as="geometry" />
        </mxCell>
        <mxCell id="-5aLn5IDz-yiHX2ItAhz-20" value="Klubtag" style="rounded=0;whiteSpace=wrap;html=1;" parent="1" vertex="1">
          <mxGeometry x="730" y="1234.9999999999998" width="120" height="59" as="geometry" />
        </mxCell>
        <mxCell id="-5aLn5IDz-yiHX2ItAhz-21" value="Foglalas" style="rounded=0;whiteSpace=wrap;html=1;" parent="1" vertex="1">
          <mxGeometry x="500" y="1169.9999999999998" width="120" height="59" as="geometry" />
        </mxCell>
        <mxCell id="-5aLn5IDz-yiHX2ItAhz-22" value="Palya" style="rounded=0;whiteSpace=wrap;html=1;" parent="1" vertex="1">
          <mxGeometry x="330" y="1159.9999999999998" width="120" height="59" as="geometry" />
        </mxCell>
        <mxCell id="-5aLn5IDz-yiHX2ItAhz-29" style="edgeStyle=orthogonalEdgeStyle;rounded=0;orthogonalLoop=1;jettySize=auto;html=1;exitX=1;exitY=0;exitDx=0;exitDy=0;entryX=0;entryY=0;entryDx=0;entryDy=0;" parent="1" source="-5aLn5IDz-yiHX2ItAhz-26" target="-5aLn5IDz-yiHX2ItAhz-28" edge="1">
          <mxGeometry relative="1" as="geometry">
            <Array as="points">
              <mxPoint x="140" y="1229.9999999999998" />
              <mxPoint x="140" y="1229.9999999999998" />
            </Array>
          </mxGeometry>
        </mxCell>
        <mxCell id="-5aLn5IDz-yiHX2ItAhz-26" value="" style="rounded=0;whiteSpace=wrap;html=1;" parent="1" vertex="1">
          <mxGeometry x="60" y="1229.9999999999998" width="10" height="339" as="geometry" />
        </mxCell>
        <mxCell id="-5aLn5IDz-yiHX2ItAhz-28" value="" style="rounded=0;whiteSpace=wrap;html=1;" parent="1" vertex="1">
          <mxGeometry x="200" y="1229.9999999999998" width="10" height="339" as="geometry" />
        </mxCell>
        <mxCell id="-5aLn5IDz-yiHX2ItAhz-30" value="&amp;lt;&amp;lt;create&amp;gt;&amp;gt;" style="text;html=1;align=center;verticalAlign=middle;resizable=0;points=[];autosize=1;strokeColor=none;fillColor=none;" parent="1" vertex="1">
          <mxGeometry x="90" y="1229.9999999999998" width="80" height="30" as="geometry" />
        </mxCell>
        <mxCell id="-5aLn5IDz-yiHX2ItAhz-36" style="edgeStyle=orthogonalEdgeStyle;rounded=0;orthogonalLoop=1;jettySize=auto;html=1;exitX=0;exitY=1;exitDx=0;exitDy=0;entryX=0.967;entryY=0.268;entryDx=0;entryDy=0;entryPerimeter=0;" parent="1" source="-5aLn5IDz-yiHX2ItAhz-31" target="-5aLn5IDz-yiHX2ItAhz-28" edge="1">
          <mxGeometry relative="1" as="geometry">
            <Array as="points">
              <mxPoint x="210" y="1319.9999999999998" />
            </Array>
          </mxGeometry>
        </mxCell>
        <mxCell id="-5aLn5IDz-yiHX2ItAhz-31" value="" style="rounded=0;whiteSpace=wrap;html=1;" parent="1" vertex="1">
          <mxGeometry x="360" y="1249.9999999999998" width="10" height="69" as="geometry" />
        </mxCell>
        <mxCell id="-5aLn5IDz-yiHX2ItAhz-70" style="edgeStyle=orthogonalEdgeStyle;rounded=0;orthogonalLoop=1;jettySize=auto;html=1;exitX=1;exitY=1;exitDx=0;exitDy=0;entryX=0;entryY=1;entryDx=0;entryDy=0;" parent="1" source="-5aLn5IDz-yiHX2ItAhz-32" target="-5aLn5IDz-yiHX2ItAhz-65" edge="1">
          <mxGeometry relative="1" as="geometry">
            <Array as="points">
              <mxPoint x="480" y="1409.9999999999998" />
              <mxPoint x="480" y="1409.9999999999998" />
            </Array>
          </mxGeometry>
        </mxCell>
        <mxCell id="-5aLn5IDz-yiHX2ItAhz-32" value="" style="rounded=0;whiteSpace=wrap;html=1;" parent="1" vertex="1">
          <mxGeometry x="385" y="1349.9999999999998" width="10" height="59" as="geometry" />
        </mxCell>
        <mxCell id="-5aLn5IDz-yiHX2ItAhz-33" value="" style="rounded=0;whiteSpace=wrap;html=1;" parent="1" vertex="1">
          <mxGeometry x="420" y="1249.9999999999998" width="10" height="319" as="geometry" />
        </mxCell>
        <mxCell id="-5aLn5IDz-yiHX2ItAhz-34" value="" style="endArrow=classic;html=1;rounded=0;entryX=0;entryY=0;entryDx=0;entryDy=0;exitX=0.792;exitY=0.064;exitDx=0;exitDy=0;exitPerimeter=0;" parent="1" source="-5aLn5IDz-yiHX2ItAhz-28" target="-5aLn5IDz-yiHX2ItAhz-31" edge="1">
          <mxGeometry width="50" height="50" relative="1" as="geometry">
            <mxPoint x="211" y="1249.9999999999998" as="sourcePoint" />
            <mxPoint x="270" y="1269.9999999999998" as="targetPoint" />
          </mxGeometry>
        </mxCell>
        <mxCell id="-5aLn5IDz-yiHX2ItAhz-35" value="&amp;lt;&amp;lt;create&amp;gt;&amp;gt;" style="text;html=1;align=center;verticalAlign=middle;resizable=0;points=[];autosize=1;strokeColor=none;fillColor=none;" parent="1" vertex="1">
          <mxGeometry x="245" y="1249.9999999999998" width="80" height="30" as="geometry" />
        </mxCell>
        <mxCell id="-5aLn5IDz-yiHX2ItAhz-37" value="&amp;lt;&amp;lt;delete&amp;gt;&amp;gt;" style="text;html=1;align=center;verticalAlign=middle;resizable=0;points=[];autosize=1;strokeColor=none;fillColor=none;" parent="1" vertex="1">
          <mxGeometry x="245" y="1299.9999999999998" width="80" height="30" as="geometry" />
        </mxCell>
        <mxCell id="-5aLn5IDz-yiHX2ItAhz-38" value="" style="endArrow=classic;html=1;rounded=0;entryX=0;entryY=0;entryDx=0;entryDy=0;exitX=1.3;exitY=0.352;exitDx=0;exitDy=0;exitPerimeter=0;" parent="1" source="-5aLn5IDz-yiHX2ItAhz-28" edge="1">
          <mxGeometry width="50" height="50" relative="1" as="geometry">
            <mxPoint x="233" y="1351.9999999999998" as="sourcePoint" />
            <mxPoint x="385" y="1349.9999999999998" as="targetPoint" />
          </mxGeometry>
        </mxCell>
        <mxCell id="-5aLn5IDz-yiHX2ItAhz-39" value="&amp;lt;&amp;lt;delete&amp;gt;&amp;gt;" style="text;html=1;align=center;verticalAlign=middle;resizable=0;points=[];autosize=1;strokeColor=none;fillColor=none;" parent="1" vertex="1">
          <mxGeometry x="265" y="1399.9999999999998" width="80" height="30" as="geometry" />
        </mxCell>
        <mxCell id="-5aLn5IDz-yiHX2ItAhz-40" style="edgeStyle=orthogonalEdgeStyle;rounded=0;orthogonalLoop=1;jettySize=auto;html=1;exitX=0;exitY=1;exitDx=0;exitDy=0;" parent="1" edge="1">
          <mxGeometry relative="1" as="geometry">
            <mxPoint x="390" y="1409.4999999999998" as="sourcePoint" />
            <mxPoint x="213" y="1411.9999999999998" as="targetPoint" />
            <Array as="points">
              <mxPoint x="302" y="1409.9999999999998" />
              <mxPoint x="214" y="1409.9999999999998" />
              <mxPoint x="214" y="1411.9999999999998" />
            </Array>
          </mxGeometry>
        </mxCell>
        <mxCell id="-5aLn5IDz-yiHX2ItAhz-41" value="&amp;lt;&amp;lt;create&amp;gt;&amp;gt;" style="text;html=1;align=center;verticalAlign=middle;resizable=0;points=[];autosize=1;strokeColor=none;fillColor=none;" parent="1" vertex="1">
          <mxGeometry x="265" y="1339.9999999999998" width="80" height="30" as="geometry" />
        </mxCell>
        <mxCell id="-5aLn5IDz-yiHX2ItAhz-42" value="" style="endArrow=classic;html=1;rounded=0;entryX=0;entryY=0;entryDx=0;entryDy=0;" parent="1" target="-5aLn5IDz-yiHX2ItAhz-33" edge="1">
          <mxGeometry width="50" height="50" relative="1" as="geometry">
            <mxPoint x="210" y="1249.9999999999998" as="sourcePoint" />
            <mxPoint x="380" y="1349.9999999999998" as="targetPoint" />
          </mxGeometry>
        </mxCell>
        <mxCell id="-5aLn5IDz-yiHX2ItAhz-43" value="&amp;lt;&amp;lt;create&amp;gt;&amp;gt;" style="text;html=1;align=center;verticalAlign=middle;resizable=0;points=[];autosize=1;strokeColor=none;fillColor=none;" parent="1" vertex="1">
          <mxGeometry x="355" y="1239.9999999999998" width="80" height="30" as="geometry" />
        </mxCell>
        <mxCell id="-5aLn5IDz-yiHX2ItAhz-47" value="" style="endArrow=classic;html=1;rounded=0;entryX=0;entryY=0.75;entryDx=0;entryDy=0;exitX=1.3;exitY=0.352;exitDx=0;exitDy=0;exitPerimeter=0;" parent="1" target="-5aLn5IDz-yiHX2ItAhz-20" edge="1">
          <mxGeometry width="50" height="50" relative="1" as="geometry">
            <mxPoint x="210" y="1284.4999999999998" as="sourcePoint" />
            <mxPoint x="382" y="1284.4999999999998" as="targetPoint" />
          </mxGeometry>
        </mxCell>
        <mxCell id="-5aLn5IDz-yiHX2ItAhz-48" value="&amp;lt;&amp;lt;create&amp;gt;&amp;gt;" style="text;html=1;align=center;verticalAlign=middle;resizable=0;points=[];autosize=1;strokeColor=none;fillColor=none;" parent="1" vertex="1">
          <mxGeometry x="660" y="1249.9999999999998" width="80" height="30" as="geometry" />
        </mxCell>
        <mxCell id="-5aLn5IDz-yiHX2ItAhz-53" value="" style="endArrow=none;dashed=1;html=1;rounded=0;" parent="1" source="-5aLn5IDz-yiHX2ItAhz-65" edge="1">
          <mxGeometry width="50" height="50" relative="1" as="geometry">
            <mxPoint x="560" y="1569.9999999999998" as="sourcePoint" />
            <mxPoint x="559.5" y="1229.9999999999998" as="targetPoint" />
          </mxGeometry>
        </mxCell>
        <mxCell id="-5aLn5IDz-yiHX2ItAhz-67" style="edgeStyle=orthogonalEdgeStyle;rounded=0;orthogonalLoop=1;jettySize=auto;html=1;exitX=-0.1;exitY=0.099;exitDx=0;exitDy=0;entryX=1;entryY=0;entryDx=0;entryDy=0;exitPerimeter=0;" parent="1" source="-5aLn5IDz-yiHX2ItAhz-55" target="-5aLn5IDz-yiHX2ItAhz-65" edge="1">
          <mxGeometry relative="1" as="geometry">
            <Array as="points">
              <mxPoint x="779" y="1339.9999999999998" />
            </Array>
          </mxGeometry>
        </mxCell>
        <mxCell id="-5aLn5IDz-yiHX2ItAhz-55" value="" style="rounded=0;whiteSpace=wrap;html=1;" parent="1" vertex="1">
          <mxGeometry x="780" y="1314.9999999999998" width="10" height="244" as="geometry" />
        </mxCell>
        <mxCell id="-5aLn5IDz-yiHX2ItAhz-66" value="" style="endArrow=none;dashed=1;html=1;rounded=0;" parent="1" target="-5aLn5IDz-yiHX2ItAhz-65" edge="1">
          <mxGeometry width="50" height="50" relative="1" as="geometry">
            <mxPoint x="560" y="1569.9999999999998" as="sourcePoint" />
            <mxPoint x="559.5" y="1229.9999999999998" as="targetPoint" />
          </mxGeometry>
        </mxCell>
        <mxCell id="-5aLn5IDz-yiHX2ItAhz-69" style="edgeStyle=orthogonalEdgeStyle;rounded=0;orthogonalLoop=1;jettySize=auto;html=1;exitX=0;exitY=0.5;exitDx=0;exitDy=0;entryX=1;entryY=0;entryDx=0;entryDy=0;" parent="1" source="-5aLn5IDz-yiHX2ItAhz-65" target="-5aLn5IDz-yiHX2ItAhz-32" edge="1">
          <mxGeometry relative="1" as="geometry">
            <Array as="points">
              <mxPoint x="555" y="1349.9999999999998" />
            </Array>
          </mxGeometry>
        </mxCell>
        <mxCell id="-5aLn5IDz-yiHX2ItAhz-65" value="" style="rounded=0;whiteSpace=wrap;html=1;" parent="1" vertex="1">
          <mxGeometry x="555" y="1339.9999999999998" width="10" height="69" as="geometry" />
        </mxCell>
        <mxCell id="-5aLn5IDz-yiHX2ItAhz-73" value="" style="rounded=0;whiteSpace=wrap;html=1;" parent="1" vertex="1">
          <mxGeometry x="805" y="1314.9999999999998" width="10" height="244" as="geometry" />
        </mxCell>
        <mxCell id="-5aLn5IDz-yiHX2ItAhz-76" value="" style="endArrow=none;dashed=1;html=1;rounded=0;" parent="1" source="-5aLn5IDz-yiHX2ItAhz-79" edge="1">
          <mxGeometry width="50" height="50" relative="1" as="geometry">
            <mxPoint x="590" y="1569.9999999999998" as="sourcePoint" />
            <mxPoint x="589.5799999999999" y="1229.9999999999998" as="targetPoint" />
          </mxGeometry>
        </mxCell>
        <mxCell id="-5aLn5IDz-yiHX2ItAhz-80" value="" style="endArrow=none;dashed=1;html=1;rounded=0;" parent="1" target="-5aLn5IDz-yiHX2ItAhz-79" edge="1">
          <mxGeometry width="50" height="50" relative="1" as="geometry">
            <mxPoint x="590" y="1569.9999999999998" as="sourcePoint" />
            <mxPoint x="589.5799999999999" y="1229.9999999999998" as="targetPoint" />
          </mxGeometry>
        </mxCell>
        <mxCell id="-5aLn5IDz-yiHX2ItAhz-79" value="" style="rounded=0;whiteSpace=wrap;html=1;" parent="1" vertex="1">
          <mxGeometry x="585" y="1439.9999999999998" width="10" height="69" as="geometry" />
        </mxCell>
        <mxCell id="-5aLn5IDz-yiHX2ItAhz-81" style="edgeStyle=orthogonalEdgeStyle;rounded=0;orthogonalLoop=1;jettySize=auto;html=1;exitX=-0.1;exitY=0.099;exitDx=0;exitDy=0;entryX=1;entryY=0;entryDx=0;entryDy=0;exitPerimeter=0;" parent="1" edge="1">
          <mxGeometry relative="1" as="geometry">
            <mxPoint x="805" y="1439.9999999999998" as="sourcePoint" />
            <mxPoint x="591" y="1440.9999999999998" as="targetPoint" />
            <Array as="points">
              <mxPoint x="805" y="1440.9999999999998" />
            </Array>
          </mxGeometry>
        </mxCell>
        <mxCell id="-5aLn5IDz-yiHX2ItAhz-82" style="edgeStyle=orthogonalEdgeStyle;rounded=0;orthogonalLoop=1;jettySize=auto;html=1;exitX=-0.1;exitY=0.099;exitDx=0;exitDy=0;exitPerimeter=0;" parent="1" edge="1">
          <mxGeometry relative="1" as="geometry">
            <mxPoint x="584" y="1459.9999999999998" as="sourcePoint" />
            <mxPoint x="430" y="1460.9999999999998" as="targetPoint" />
            <Array as="points">
              <mxPoint x="584" y="1460.9999999999998" />
            </Array>
          </mxGeometry>
        </mxCell>
        <mxCell id="-5aLn5IDz-yiHX2ItAhz-83" style="edgeStyle=orthogonalEdgeStyle;rounded=0;orthogonalLoop=1;jettySize=auto;html=1;exitX=1;exitY=1;exitDx=0;exitDy=0;entryX=0;entryY=1;entryDx=0;entryDy=0;" parent="1" edge="1">
          <mxGeometry relative="1" as="geometry">
            <mxPoint x="430" y="1509.9999999999998" as="sourcePoint" />
            <mxPoint x="590" y="1509.9999999999998" as="targetPoint" />
            <Array as="points">
              <mxPoint x="515" y="1509.9999999999998" />
              <mxPoint x="515" y="1509.9999999999998" />
            </Array>
          </mxGeometry>
        </mxCell>
        <mxCell id="-5aLn5IDz-yiHX2ItAhz-84" value="&amp;lt;&amp;lt;create&amp;gt;&amp;gt;" style="text;html=1;align=center;verticalAlign=middle;resizable=0;points=[];autosize=1;strokeColor=none;fillColor=none;" parent="1" vertex="1">
          <mxGeometry x="640" y="1309.9999999999998" width="80" height="30" as="geometry" />
        </mxCell>
        <mxCell id="-5aLn5IDz-yiHX2ItAhz-85" value="&amp;lt;&amp;lt;create&amp;gt;&amp;gt;" style="text;html=1;align=center;verticalAlign=middle;resizable=0;points=[];autosize=1;strokeColor=none;fillColor=none;" parent="1" vertex="1">
          <mxGeometry x="650" y="1409.9999999999998" width="80" height="30" as="geometry" />
        </mxCell>
        <mxCell id="wmerD7P6c2fhzKaJmc1H-1" value="" style="rounded=0;whiteSpace=wrap;html=1;" parent="1" vertex="1">
          <mxGeometry x="9" y="549" width="191" height="90" as="geometry" />
        </mxCell>
        <mxCell id="4rPIcV-lHyRuGQjlF1An-4" style="edgeStyle=orthogonalEdgeStyle;rounded=0;orthogonalLoop=1;jettySize=auto;html=1;entryX=0.5;entryY=1;entryDx=0;entryDy=0;" edge="1" parent="1" source="wmerD7P6c2fhzKaJmc1H-2" target="4rPIcV-lHyRuGQjlF1An-1">
          <mxGeometry relative="1" as="geometry">
            <Array as="points">
              <mxPoint x="114" y="490" />
              <mxPoint x="295" y="490" />
            </Array>
          </mxGeometry>
        </mxCell>
        <mxCell id="wmerD7P6c2fhzKaJmc1H-2" value="Klubtag&lt;div&gt;&lt;br&gt;&lt;/div&gt;&lt;div&gt;nev: &quot;Füty Imre&quot;&lt;span style=&quot;white-space: pre;&quot;&gt;&#x9;&lt;/span&gt;&lt;div&gt;kedvezmeny: &quot;nyugdíjas&quot;&lt;/div&gt;&lt;div&gt;foglalasok: &amp;lt;Foglalas1, Foglalas2&amp;gt;&lt;/div&gt;&lt;div&gt;&lt;br style=&quot;&quot;&gt;&lt;/div&gt;&lt;/div&gt;" style="text;html=1;align=left;verticalAlign=middle;resizable=0;points=[];autosize=1;strokeColor=none;fillColor=none;" parent="1" vertex="1">
          <mxGeometry x="9" y="544" width="210" height="100" as="geometry" />
        </mxCell>
        <mxCell id="wmerD7P6c2fhzKaJmc1H-3" value="" style="endArrow=none;html=1;rounded=0;" parent="1" edge="1">
          <mxGeometry width="50" height="50" relative="1" as="geometry">
            <mxPoint x="9" y="579" as="sourcePoint" />
            <mxPoint x="200" y="579" as="targetPoint" />
          </mxGeometry>
        </mxCell>
        <mxCell id="4rPIcV-lHyRuGQjlF1An-6" style="edgeStyle=orthogonalEdgeStyle;rounded=0;orthogonalLoop=1;jettySize=auto;html=1;entryX=0.5;entryY=1;entryDx=0;entryDy=0;" edge="1" parent="1" target="4rPIcV-lHyRuGQjlF1An-1">
          <mxGeometry relative="1" as="geometry">
            <mxPoint x="300" y="680" as="sourcePoint" />
            <Array as="points">
              <mxPoint x="295" y="680" />
            </Array>
          </mxGeometry>
        </mxCell>
        <mxCell id="wmerD7P6c2fhzKaJmc1H-4" value="&lt;div&gt;&lt;br&gt;&lt;/div&gt;&lt;span style=&quot;text-align: left;&quot;&gt;&lt;div&gt;&lt;span style=&quot;text-align: left;&quot;&gt;Foglalas&lt;/span&gt;&lt;/div&gt;&lt;div&gt;&lt;span style=&quot;text-align: left;&quot;&gt;&lt;br&gt;&lt;/span&gt;&lt;/div&gt;klubtag: &quot;Füty Imre&quot;&lt;/span&gt;&lt;div style=&quot;text-align: left;&quot;&gt;palya: Palya1&lt;/div&gt;&lt;div style=&quot;text-align: left;&quot;&gt;datum: 0330&lt;/div&gt;&lt;div style=&quot;text-align: left;&quot;&gt;ora: 13&lt;/div&gt;&lt;div style=&quot;text-align: left;&quot;&gt;dij: 4000&lt;/div&gt;" style="text;html=1;align=center;verticalAlign=middle;resizable=0;points=[];autosize=1;strokeColor=none;fillColor=none;" parent="1" vertex="1">
          <mxGeometry x="206.5" y="639" width="130" height="130" as="geometry" />
        </mxCell>
        <mxCell id="wmerD7P6c2fhzKaJmc1H-7" value="" style="endArrow=none;html=1;rounded=0;" parent="1" edge="1">
          <mxGeometry width="50" height="50" relative="1" as="geometry">
            <mxPoint x="211.5" y="679" as="sourcePoint" />
            <mxPoint x="331.5" y="679" as="targetPoint" />
          </mxGeometry>
        </mxCell>
        <mxCell id="wmerD7P6c2fhzKaJmc1H-8" value="" style="rounded=0;whiteSpace=wrap;html=1;" parent="1" vertex="1">
          <mxGeometry x="439" y="549" width="196" height="70" as="geometry" />
        </mxCell>
        <mxCell id="wmerD7P6c2fhzKaJmc1H-9" value="&lt;div&gt;&lt;span style=&quot;&quot;&gt;Teniszklub&lt;/span&gt;&lt;/div&gt;&lt;span style=&quot;&quot;&gt;&lt;div&gt;&lt;span style=&quot;&quot;&gt;&lt;br&gt;&lt;/span&gt;&lt;/div&gt;Palyak: &amp;lt;Palya1, Palya2&amp;gt;&lt;/span&gt;&lt;div style=&quot;&quot;&gt;Klubtagok &amp;lt;Füty Imre, Elvará Zsolt&amp;gt;&lt;/div&gt;" style="text;html=1;align=left;verticalAlign=middle;resizable=0;points=[];autosize=1;strokeColor=none;fillColor=none;" parent="1" vertex="1">
          <mxGeometry x="439" y="549" width="210" height="70" as="geometry" />
        </mxCell>
        <mxCell id="wmerD7P6c2fhzKaJmc1H-10" value="" style="endArrow=none;html=1;rounded=0;" parent="1" edge="1">
          <mxGeometry width="50" height="50" relative="1" as="geometry">
            <mxPoint x="439" y="579" as="sourcePoint" />
            <mxPoint x="635" y="579" as="targetPoint" />
          </mxGeometry>
        </mxCell>
        <mxCell id="4rPIcV-lHyRuGQjlF1An-7" style="edgeStyle=orthogonalEdgeStyle;rounded=0;orthogonalLoop=1;jettySize=auto;html=1;entryX=0.5;entryY=1;entryDx=0;entryDy=0;" edge="1" parent="1" source="wmerD7P6c2fhzKaJmc1H-11" target="4rPIcV-lHyRuGQjlF1An-1">
          <mxGeometry relative="1" as="geometry">
            <Array as="points">
              <mxPoint x="400" y="490" />
              <mxPoint x="295" y="490" />
            </Array>
          </mxGeometry>
        </mxCell>
        <mxCell id="wmerD7P6c2fhzKaJmc1H-11" value="&lt;div&gt;&lt;span style=&quot;&quot;&gt;Palya&lt;/span&gt;&lt;/div&gt;&lt;span style=&quot;&quot;&gt;&lt;div&gt;&lt;span style=&quot;&quot;&gt;&lt;br&gt;&lt;/span&gt;&lt;/div&gt;sorszam: 1&lt;/span&gt;&lt;div style=&quot;&quot;&gt;boritas: &quot;fuves&quot;&lt;/div&gt;&lt;div style=&quot;&quot;&gt;fedett: hamis&lt;/div&gt;&lt;div style=&quot;&quot;&gt;Foglalasok: &amp;lt;Foglalas1&amp;gt;&lt;/div&gt;&lt;div style=&quot;&quot;&gt;Oradijak: &amp;lt;&amp;nbsp;{&quot;fű&quot;, 5000}, {&quot;salak&quot;, 3000}, {&quot;műanyag&quot;, 2000}&amp;gt;&lt;/div&gt;" style="text;html=1;align=left;verticalAlign=middle;resizable=0;points=[];autosize=1;strokeColor=none;fillColor=none;" parent="1" vertex="1">
          <mxGeometry x="145.5" y="789" width="340" height="110" as="geometry" />
        </mxCell>
        <mxCell id="wmerD7P6c2fhzKaJmc1H-13" value="" style="endArrow=none;html=1;rounded=0;" parent="1" edge="1">
          <mxGeometry width="50" height="50" relative="1" as="geometry">
            <mxPoint x="145.5" y="813" as="sourcePoint" />
            <mxPoint x="489" y="814" as="targetPoint" />
          </mxGeometry>
        </mxCell>
        <mxCell id="wmerD7P6c2fhzKaJmc1H-14" value="" style="endArrow=none;html=1;rounded=0;" parent="1" edge="1">
          <mxGeometry width="50" height="50" relative="1" as="geometry">
            <mxPoint y="380" as="sourcePoint" />
            <mxPoint x="850" y="380" as="targetPoint" />
          </mxGeometry>
        </mxCell>
        <mxCell id="wmerD7P6c2fhzKaJmc1H-15" value="" style="endArrow=none;html=1;rounded=0;" parent="1" edge="1">
          <mxGeometry width="50" height="50" relative="1" as="geometry">
            <mxPoint y="1129.9999999999998" as="sourcePoint" />
            <mxPoint x="850" y="1129.9999999999998" as="targetPoint" />
          </mxGeometry>
        </mxCell>
        <mxCell id="wmerD7P6c2fhzKaJmc1H-16" value="" style="endArrow=none;html=1;rounded=0;" parent="1" edge="1">
          <mxGeometry width="50" height="50" relative="1" as="geometry">
            <mxPoint y="903.9999999999998" as="sourcePoint" />
            <mxPoint x="850" y="903.9999999999998" as="targetPoint" />
          </mxGeometry>
        </mxCell>
        <mxCell id="wmerD7P6c2fhzKaJmc1H-17" value="" style="endArrow=none;html=1;rounded=0;" parent="1" edge="1">
          <mxGeometry width="50" height="50" relative="1" as="geometry">
            <mxPoint y="1620" as="sourcePoint" />
            <mxPoint x="1400" y="1620" as="targetPoint" />
          </mxGeometry>
        </mxCell>
        <mxCell id="lCzbDf0Nkc0ctEeIGAdn-2" value="&amp;lt;precedes&amp;gt;" style="text;html=1;align=center;verticalAlign=middle;resizable=0;points=[];autosize=1;strokeColor=none;fillColor=none;rotation=-25;" parent="1" vertex="1">
          <mxGeometry x="249" y="290" width="90" height="30" as="geometry" />
        </mxCell>
        <mxCell id="lCzbDf0Nkc0ctEeIGAdn-3" value="&amp;lt;precedes&amp;gt;" style="text;html=1;align=center;verticalAlign=middle;resizable=0;points=[];autosize=1;strokeColor=none;fillColor=none;rotation=-30;" parent="1" vertex="1">
          <mxGeometry x="226.5" y="280" width="90" height="30" as="geometry" />
        </mxCell>
        <mxCell id="lCzbDf0Nkc0ctEeIGAdn-4" style="edgeStyle=orthogonalEdgeStyle;rounded=0;orthogonalLoop=1;jettySize=auto;html=1;endArrow=diamondThin;endFill=1;endSize=13;entryX=0.016;entryY=0.457;entryDx=0;entryDy=0;entryPerimeter=0;" parent="1" source="wmerD7P6c2fhzKaJmc1H-2" target="wmerD7P6c2fhzKaJmc1H-4" edge="1">
          <mxGeometry relative="1" as="geometry">
            <mxPoint x="200" y="729" as="targetPoint" />
            <Array as="points">
              <mxPoint x="114" y="699" />
              <mxPoint x="200" y="699" />
            </Array>
          </mxGeometry>
        </mxCell>
        <mxCell id="lCzbDf0Nkc0ctEeIGAdn-5" style="edgeStyle=orthogonalEdgeStyle;rounded=0;orthogonalLoop=1;jettySize=auto;html=1;endArrow=diamondThin;endFill=0;strokeWidth=1;endSize=15;entryX=0.866;entryY=0;entryDx=0;entryDy=0;entryPerimeter=0;" parent="1" source="wmerD7P6c2fhzKaJmc1H-9" target="wmerD7P6c2fhzKaJmc1H-11" edge="1">
          <mxGeometry relative="1" as="geometry">
            <mxPoint x="430" y="749" as="targetPoint" />
            <Array as="points">
              <mxPoint x="440" y="699" />
              <mxPoint x="440" y="699" />
            </Array>
          </mxGeometry>
        </mxCell>
        <mxCell id="lCzbDf0Nkc0ctEeIGAdn-6" style="edgeStyle=orthogonalEdgeStyle;rounded=0;orthogonalLoop=1;jettySize=auto;html=1;entryX=-0.002;entryY=0.642;entryDx=0;entryDy=0;entryPerimeter=0;exitX=0.91;exitY=0.499;exitDx=0;exitDy=0;exitPerimeter=0;endArrow=diamondThin;endFill=0;endSize=12;" parent="1" source="wmerD7P6c2fhzKaJmc1H-2" target="wmerD7P6c2fhzKaJmc1H-9" edge="1">
          <mxGeometry relative="1" as="geometry" />
        </mxCell>
        <mxCell id="lCzbDf0Nkc0ctEeIGAdn-7" style="edgeStyle=orthogonalEdgeStyle;rounded=0;orthogonalLoop=1;jettySize=auto;html=1;entryX=0.331;entryY=1.057;entryDx=0;entryDy=0;entryPerimeter=0;endArrow=diamondThin;endFill=0;endSize=12;" parent="1" target="wmerD7P6c2fhzKaJmc1H-9" edge="1">
          <mxGeometry relative="1" as="geometry">
            <mxPoint x="330" y="705" as="sourcePoint" />
          </mxGeometry>
        </mxCell>
        <mxCell id="4rPIcV-lHyRuGQjlF1An-1" value="" style="rounded=0;whiteSpace=wrap;html=1;" vertex="1" parent="1">
          <mxGeometry x="250" y="390" width="90" height="50" as="geometry" />
        </mxCell>
        <mxCell id="4rPIcV-lHyRuGQjlF1An-2" value="&lt;div&gt;IVisitable&lt;/div&gt;" style="text;html=1;align=left;verticalAlign=middle;resizable=0;points=[];autosize=1;strokeColor=none;fillColor=none;" vertex="1" parent="1">
          <mxGeometry x="270" y="390" width="70" height="30" as="geometry" />
        </mxCell>
        <mxCell id="4rPIcV-lHyRuGQjlF1An-3" value="" style="endArrow=none;html=1;rounded=0;entryX=1;entryY=0.5;entryDx=0;entryDy=0;" edge="1" parent="1" target="4rPIcV-lHyRuGQjlF1An-1">
          <mxGeometry width="50" height="50" relative="1" as="geometry">
            <mxPoint x="250" y="415" as="sourcePoint" />
            <mxPoint x="350" y="414" as="targetPoint" />
          </mxGeometry>
        </mxCell>
        <mxCell id="4rPIcV-lHyRuGQjlF1An-8" value="" style="rounded=0;whiteSpace=wrap;html=1;" vertex="1" parent="1">
          <mxGeometry x="700" y="395" width="70" height="35" as="geometry" />
        </mxCell>
        <mxCell id="4rPIcV-lHyRuGQjlF1An-9" value="&lt;div&gt;IVisitor&lt;/div&gt;" style="text;html=1;align=left;verticalAlign=middle;resizable=0;points=[];autosize=1;strokeColor=none;fillColor=none;" vertex="1" parent="1">
          <mxGeometry x="720" y="395" width="60" height="30" as="geometry" />
        </mxCell>
        <mxCell id="4rPIcV-lHyRuGQjlF1An-10" value="" style="endArrow=none;html=1;rounded=0;exitX=0;exitY=0.75;exitDx=0;exitDy=0;entryX=1;entryY=0.75;entryDx=0;entryDy=0;" edge="1" parent="1" source="4rPIcV-lHyRuGQjlF1An-8" target="4rPIcV-lHyRuGQjlF1An-8">
          <mxGeometry width="50" height="50" relative="1" as="geometry">
            <mxPoint x="640" y="425" as="sourcePoint" />
            <mxPoint x="770" y="421" as="targetPoint" />
          </mxGeometry>
        </mxCell>
        <mxCell id="4rPIcV-lHyRuGQjlF1An-11" style="edgeStyle=orthogonalEdgeStyle;rounded=0;orthogonalLoop=1;jettySize=auto;html=1;dashed=1;strokeWidth=2;exitX=1.053;exitY=0.895;exitDx=0;exitDy=0;exitPerimeter=0;entryX=0;entryY=0.5;entryDx=0;entryDy=0;" edge="1" parent="1" source="4rPIcV-lHyRuGQjlF1An-2" target="4rPIcV-lHyRuGQjlF1An-8">
          <mxGeometry relative="1" as="geometry">
            <mxPoint x="390" y="416" as="sourcePoint" />
            <mxPoint x="660" y="410" as="targetPoint" />
            <Array as="points">
              <mxPoint x="344" y="412" />
              <mxPoint x="500" y="412" />
            </Array>
          </mxGeometry>
        </mxCell>
        <mxCell id="4rPIcV-lHyRuGQjlF1An-12" value="" style="rounded=0;whiteSpace=wrap;html=1;" vertex="1" parent="1">
          <mxGeometry x="690" y="544" width="190" height="86" as="geometry" />
        </mxCell>
        <mxCell id="4rPIcV-lHyRuGQjlF1An-13" value="&lt;div&gt;KoltsegVisitor&lt;/div&gt;&lt;div&gt;&lt;br&gt;&lt;/div&gt;+ Osszeg: 4000&lt;div&gt;- Nap: 0330&lt;/div&gt;&lt;div&gt;- VIzsgaltTag: Füty Imre&lt;/div&gt;" style="text;html=1;align=left;verticalAlign=middle;resizable=0;points=[];autosize=1;strokeColor=none;fillColor=none;" vertex="1" parent="1">
          <mxGeometry x="690" y="544" width="150" height="90" as="geometry" />
        </mxCell>
        <mxCell id="4rPIcV-lHyRuGQjlF1An-14" value="" style="endArrow=none;html=1;rounded=0;entryX=1.014;entryY=0.345;entryDx=0;entryDy=0;entryPerimeter=0;" edge="1" parent="1" target="4rPIcV-lHyRuGQjlF1An-12">
          <mxGeometry width="50" height="50" relative="1" as="geometry">
            <mxPoint x="690" y="574" as="sourcePoint" />
            <mxPoint x="660" y="574" as="targetPoint" />
          </mxGeometry>
        </mxCell>
        <mxCell id="4rPIcV-lHyRuGQjlF1An-15" style="edgeStyle=orthogonalEdgeStyle;rounded=0;orthogonalLoop=1;jettySize=auto;html=1;dashed=1;strokeWidth=2;entryX=0.5;entryY=1;entryDx=0;entryDy=0;" edge="1" parent="1" source="4rPIcV-lHyRuGQjlF1An-13" target="4rPIcV-lHyRuGQjlF1An-8">
          <mxGeometry relative="1" as="geometry">
            <mxPoint x="740" y="460" as="targetPoint" />
            <Array as="points">
              <mxPoint x="735" y="510" />
              <mxPoint x="735" y="510" />
            </Array>
          </mxGeometry>
        </mxCell>
        <mxCell id="4rPIcV-lHyRuGQjlF1An-32" style="edgeStyle=orthogonalEdgeStyle;rounded=0;orthogonalLoop=1;jettySize=auto;html=1;exitX=1;exitY=0.5;exitDx=0;exitDy=0;dashed=1;" edge="1" parent="1" source="4rPIcV-lHyRuGQjlF1An-16">
          <mxGeometry relative="1" as="geometry">
            <mxPoint x="900" y="1665" as="targetPoint" />
            <Array as="points">
              <mxPoint x="730" y="1665" />
            </Array>
          </mxGeometry>
        </mxCell>
        <mxCell id="4rPIcV-lHyRuGQjlF1An-16" value="IVisitable" style="swimlane;whiteSpace=wrap;html=1;" vertex="1" parent="1">
          <mxGeometry x="300" y="1630" width="170" height="70" as="geometry" />
        </mxCell>
        <mxCell id="4rPIcV-lHyRuGQjlF1An-18" value="" style="endArrow=none;html=1;rounded=0;" edge="1" parent="4rPIcV-lHyRuGQjlF1An-16">
          <mxGeometry width="50" height="50" relative="1" as="geometry">
            <mxPoint y="40" as="sourcePoint" />
            <mxPoint x="171" y="40.00000000000023" as="targetPoint" />
            <Array as="points">
              <mxPoint y="40" />
            </Array>
          </mxGeometry>
        </mxCell>
        <mxCell id="4rPIcV-lHyRuGQjlF1An-17" value="&amp;lt;&amp;lt;interface&amp;gt;&amp;gt;" style="text;html=1;align=left;verticalAlign=middle;resizable=0;points=[];autosize=1;strokeColor=none;fillColor=none;" vertex="1" parent="4rPIcV-lHyRuGQjlF1An-16">
          <mxGeometry x="44" y="16" width="100" height="30" as="geometry" />
        </mxCell>
        <mxCell id="4rPIcV-lHyRuGQjlF1An-19" value="Accept(visitor: IVisitor):void" style="text;html=1;align=left;verticalAlign=middle;resizable=0;points=[];autosize=1;strokeColor=none;fillColor=none;" vertex="1" parent="4rPIcV-lHyRuGQjlF1An-16">
          <mxGeometry y="40" width="170" height="30" as="geometry" />
        </mxCell>
        <mxCell id="4rPIcV-lHyRuGQjlF1An-20" style="edgeStyle=orthogonalEdgeStyle;rounded=0;orthogonalLoop=1;jettySize=auto;html=1;exitX=0.5;exitY=0;exitDx=0;exitDy=0;entryX=0.485;entryY=1.053;entryDx=0;entryDy=0;entryPerimeter=0;" edge="1" parent="1" source="RCcNGVWDQ_7rDxmdVCuK-30" target="4rPIcV-lHyRuGQjlF1An-19">
          <mxGeometry relative="1" as="geometry" />
        </mxCell>
        <mxCell id="4rPIcV-lHyRuGQjlF1An-22" style="edgeStyle=orthogonalEdgeStyle;rounded=0;orthogonalLoop=1;jettySize=auto;html=1;exitX=0.5;exitY=0;exitDx=0;exitDy=0;entryX=0.48;entryY=1.053;entryDx=0;entryDy=0;entryPerimeter=0;" edge="1" parent="1" source="RCcNGVWDQ_7rDxmdVCuK-37" target="4rPIcV-lHyRuGQjlF1An-19">
          <mxGeometry relative="1" as="geometry" />
        </mxCell>
        <mxCell id="4rPIcV-lHyRuGQjlF1An-23" style="edgeStyle=orthogonalEdgeStyle;rounded=0;orthogonalLoop=1;jettySize=auto;html=1;endArrow=diamondThin;endFill=0;endSize=14;entryX=-0.005;entryY=0.534;entryDx=0;entryDy=0;entryPerimeter=0;" edge="1" parent="1" target="RCcNGVWDQ_7rDxmdVCuK-42">
          <mxGeometry relative="1" as="geometry">
            <mxPoint x="161" y="1890" as="sourcePoint" />
            <mxPoint x="130" y="2089" as="targetPoint" />
            <Array as="points">
              <mxPoint x="160" y="2101" />
            </Array>
          </mxGeometry>
        </mxCell>
        <mxCell id="4rPIcV-lHyRuGQjlF1An-24" style="edgeStyle=orthogonalEdgeStyle;rounded=0;orthogonalLoop=1;jettySize=auto;html=1;endArrow=diamondThin;endFill=1;endSize=12;entryX=0.503;entryY=1.002;entryDx=0;entryDy=0;entryPerimeter=0;" edge="1" parent="1" source="RCcNGVWDQ_7rDxmdVCuK-32" target="RCcNGVWDQ_7rDxmdVCuK-38">
          <mxGeometry relative="1" as="geometry">
            <mxPoint x="700" y="1910" as="targetPoint" />
            <Array as="points">
              <mxPoint x="160" y="1960" />
              <mxPoint x="700" y="1960" />
            </Array>
          </mxGeometry>
        </mxCell>
        <mxCell id="4rPIcV-lHyRuGQjlF1An-27" style="edgeStyle=orthogonalEdgeStyle;rounded=0;orthogonalLoop=1;jettySize=auto;html=1;exitX=0.5;exitY=0;exitDx=0;exitDy=0;endArrow=diamondThin;endFill=0;endSize=12;" edge="1" parent="1" source="RCcNGVWDQ_7rDxmdVCuK-41">
          <mxGeometry relative="1" as="geometry">
            <mxPoint x="374" y="1930" as="targetPoint" />
          </mxGeometry>
        </mxCell>
        <mxCell id="4rPIcV-lHyRuGQjlF1An-28" value="IVisitor" style="swimlane;whiteSpace=wrap;html=1;startSize=23;" vertex="1" parent="1">
          <mxGeometry x="900" y="1630" width="170" height="100" as="geometry" />
        </mxCell>
        <mxCell id="4rPIcV-lHyRuGQjlF1An-29" value="" style="endArrow=none;html=1;rounded=0;" edge="1" parent="4rPIcV-lHyRuGQjlF1An-28">
          <mxGeometry width="50" height="50" relative="1" as="geometry">
            <mxPoint y="40" as="sourcePoint" />
            <mxPoint x="171" y="40.00000000000023" as="targetPoint" />
            <Array as="points">
              <mxPoint y="40" />
            </Array>
          </mxGeometry>
        </mxCell>
        <mxCell id="4rPIcV-lHyRuGQjlF1An-30" value="&amp;lt;&amp;lt;interface&amp;gt;&amp;gt;" style="text;html=1;align=left;verticalAlign=middle;resizable=0;points=[];autosize=1;strokeColor=none;fillColor=none;" vertex="1" parent="4rPIcV-lHyRuGQjlF1An-28">
          <mxGeometry x="44" y="16" width="100" height="30" as="geometry" />
        </mxCell>
        <mxCell id="4rPIcV-lHyRuGQjlF1An-31" value="Visit(palya: Palya):void&lt;div&gt;Visit(klubtag: Klubtag):void&lt;/div&gt;&lt;div&gt;Visit(foglalas: Foglalas):void&lt;/div&gt;" style="text;html=1;align=left;verticalAlign=middle;resizable=0;points=[];autosize=1;strokeColor=none;fillColor=none;" vertex="1" parent="4rPIcV-lHyRuGQjlF1An-28">
          <mxGeometry y="40" width="170" height="60" as="geometry" />
        </mxCell>
        <mxCell id="4rPIcV-lHyRuGQjlF1An-33" value="KoltsegVisitor" style="swimlane;whiteSpace=wrap;html=1;" vertex="1" parent="1">
          <mxGeometry x="810" y="1850" width="240" height="150" as="geometry" />
        </mxCell>
        <mxCell id="4rPIcV-lHyRuGQjlF1An-34" value="+ Osszeg:real {get, set}&lt;div&gt;- Nap:string&lt;/div&gt;&lt;div&gt;- VIzsgaltTag:Klubtag&lt;/div&gt;&lt;div&gt;&lt;br&gt;&lt;/div&gt;&lt;div&gt;+ KoltsegVisitor(tag:Klubtag, nap:string)&lt;/div&gt;&lt;div&gt;+ Visit(palya: Palya):void&lt;/div&gt;&lt;div&gt;+ Visit(klubtag: Klubtag):void&lt;/div&gt;&lt;div&gt;+ Visit(foglalas: Foglalas):void&lt;/div&gt;" style="text;html=1;align=left;verticalAlign=middle;resizable=0;points=[];autosize=1;strokeColor=none;fillColor=none;" vertex="1" parent="4rPIcV-lHyRuGQjlF1An-33">
          <mxGeometry y="20" width="240" height="130" as="geometry" />
        </mxCell>
        <mxCell id="4rPIcV-lHyRuGQjlF1An-36" value="" style="line;strokeWidth=2;html=1;" vertex="1" parent="4rPIcV-lHyRuGQjlF1An-33">
          <mxGeometry y="70" width="240" height="10" as="geometry" />
        </mxCell>
        <mxCell id="4rPIcV-lHyRuGQjlF1An-37" value="BevetelVisitor" style="swimlane;whiteSpace=wrap;html=1;" vertex="1" parent="1">
          <mxGeometry x="1070" y="1850" width="240" height="150" as="geometry" />
        </mxCell>
        <mxCell id="4rPIcV-lHyRuGQjlF1An-38" value="+ Bevetel:real {get, set}&lt;div&gt;- Kezd:string&lt;/div&gt;&lt;div&gt;- Veg:string&lt;/div&gt;&lt;div&gt;&lt;br&gt;&lt;/div&gt;&lt;div&gt;+ BevetelVisitor(Kezd:string, Veg:string)&lt;/div&gt;&lt;div&gt;+ Visit(palya: Palya):void&lt;/div&gt;&lt;div&gt;+ Visit(klubtag: Klubtag):void&lt;/div&gt;&lt;div&gt;+ Visit(foglalas: Foglalas):void&lt;/div&gt;" style="text;html=1;align=left;verticalAlign=middle;resizable=0;points=[];autosize=1;strokeColor=none;fillColor=none;" vertex="1" parent="4rPIcV-lHyRuGQjlF1An-37">
          <mxGeometry y="20" width="240" height="130" as="geometry" />
        </mxCell>
        <mxCell id="4rPIcV-lHyRuGQjlF1An-39" value="" style="line;strokeWidth=2;html=1;" vertex="1" parent="4rPIcV-lHyRuGQjlF1An-37">
          <mxGeometry y="70" width="240" height="10" as="geometry" />
        </mxCell>
        <mxCell id="4rPIcV-lHyRuGQjlF1An-42" style="edgeStyle=orthogonalEdgeStyle;rounded=0;orthogonalLoop=1;jettySize=auto;html=1;exitX=0.5;exitY=0;exitDx=0;exitDy=0;entryX=0.488;entryY=1.045;entryDx=0;entryDy=0;entryPerimeter=0;dashed=1;" edge="1" parent="1" source="4rPIcV-lHyRuGQjlF1An-33" target="4rPIcV-lHyRuGQjlF1An-31">
          <mxGeometry relative="1" as="geometry" />
        </mxCell>
        <mxCell id="4rPIcV-lHyRuGQjlF1An-43" style="edgeStyle=orthogonalEdgeStyle;rounded=0;orthogonalLoop=1;jettySize=auto;html=1;exitX=0.5;exitY=0;exitDx=0;exitDy=0;entryX=0.504;entryY=1.045;entryDx=0;entryDy=0;entryPerimeter=0;dashed=1;" edge="1" parent="1" source="4rPIcV-lHyRuGQjlF1An-37" target="4rPIcV-lHyRuGQjlF1An-31">
          <mxGeometry relative="1" as="geometry" />
        </mxCell>
        <mxCell id="4rPIcV-lHyRuGQjlF1An-47" value="" style="rounded=0;whiteSpace=wrap;html=1;" vertex="1" parent="1">
          <mxGeometry x="900" y="542" width="190" height="86" as="geometry" />
        </mxCell>
        <mxCell id="4rPIcV-lHyRuGQjlF1An-48" value="&lt;div&gt;BevetelVisitor&lt;/div&gt;&lt;div&gt;&lt;br&gt;&lt;/div&gt;+ Bevetel: 4000&lt;div&gt;- Kezd: 0330&lt;/div&gt;&lt;div&gt;- Veg: 0330&lt;/div&gt;" style="text;html=1;align=left;verticalAlign=middle;resizable=0;points=[];autosize=1;strokeColor=none;fillColor=none;" vertex="1" parent="1">
          <mxGeometry x="900" y="542" width="110" height="90" as="geometry" />
        </mxCell>
        <mxCell id="4rPIcV-lHyRuGQjlF1An-49" value="" style="endArrow=none;html=1;rounded=0;entryX=1.014;entryY=0.345;entryDx=0;entryDy=0;entryPerimeter=0;" edge="1" parent="1" target="4rPIcV-lHyRuGQjlF1An-47">
          <mxGeometry width="50" height="50" relative="1" as="geometry">
            <mxPoint x="900" y="572" as="sourcePoint" />
            <mxPoint x="870" y="572" as="targetPoint" />
          </mxGeometry>
        </mxCell>
        <mxCell id="4rPIcV-lHyRuGQjlF1An-50" style="edgeStyle=orthogonalEdgeStyle;rounded=0;orthogonalLoop=1;jettySize=auto;html=1;dashed=1;strokeWidth=2;" edge="1" parent="1" source="4rPIcV-lHyRuGQjlF1An-48" target="4rPIcV-lHyRuGQjlF1An-8">
          <mxGeometry relative="1" as="geometry">
            <Array as="points">
              <mxPoint x="955" y="412" />
            </Array>
          </mxGeometry>
        </mxCell>
      </root>
    </mxGraphModel>
  </diagram>
</mxfile>
